<svg  viewBox="0 0 27 18" fill="none" xmlns="http://www.w3.org/2000/svg">
<path d="M7 0.000366211C8.32608 0.000366211 9.59747 0.527528 10.5352 1.46521C11.4728 2.40289 12 3.67428 12 5.00037C12 5.55265 11.5523 6.00037 11 6.00037C10.4477 6.00037 10 5.55265 10 5.00037C10 4.20472 9.6837 3.44188 9.12109 2.87927C8.6289 2.38707 7.98351 2.08327 7.29688 2.01501L7 2.00037H5C4.20435 2.00037 3.44152 2.31666 2.87891 2.87927C2.3163 3.44188 2 4.20472 2 5.00037L2.01465 5.29724C2.08291 5.98388 2.38671 6.62926 2.87891 7.12146C3.44152 7.68407 4.20435 8.00037 5 8.00037H7C8.32608 8.00037 9.59747 8.52753 10.5352 9.46521C11.4728 10.4029 12 11.6743 12 13.0004C12 14.3264 11.4728 15.5978 10.5352 16.5355C9.59747 17.4732 8.32608 18.0004 7 18.0004H5C3.67392 18.0004 2.40253 17.4732 1.46484 16.5355C0.527162 15.5978 0 14.3264 0 13.0004C0 12.4481 0.447715 12.0004 1 12.0004C1.55228 12.0004 2 12.4481 2 13.0004C2 13.796 2.3163 14.5589 2.87891 15.1215C3.44152 15.6841 4.20435 16.0004 5 16.0004H7C7.79565 16.0004 8.55848 15.6841 9.12109 15.1215C9.6837 14.5589 10 13.796 10 13.0004C10 12.2047 9.6837 11.4419 9.12109 10.8793C8.6289 10.3871 7.98351 10.0833 7.29688 10.015L7 10.0004H5C3.67392 10.0004 2.40253 9.4732 1.46484 8.53552C0.58579 7.65647 0.0671897 6.48419 0.00585938 5.24841L0 5.00037C0 3.67428 0.527162 2.40289 1.46484 1.46521C2.40253 0.527528 3.67392 0.000366211 5 0.000366211H7Z" fill="black"/>
<path d="M25.0811 0.606408C25.2682 0.170256 25.7362 -0.0749219 26.2012 0.0204703C26.6661 0.115953 26.9998 0.525397 27 0.999962V17C27 17.5522 26.5523 18 26 18C25.4477 18 25 17.5522 25 17V5.87106L20.9189 15.3935C20.7614 15.7612 20.4 16 20 16C19.6 16 19.2386 15.7612 19.0811 15.3935L15 5.87106V17C15 17.5522 14.5523 18 14 18C13.4477 18 13 17.5522 13 17V0.999962L13.0039 0.912072C13.0423 0.475633 13.3629 0.110003 13.7988 0.0204703C14.2638 -0.0749219 14.7318 0.170256 14.9189 0.606408L20 12.4619L25.0811 0.606408Z" fill="black"/>
</svg>
