<svg viewBox="0 0 24 24" xmlns="http://www.w3.org/2000/svg">
<path d="M13.525 16H17.91L15.917 11.046L13.525 16ZM18.715 18H12.559L10.901 21.435C10.7856 21.674 10.5801 21.8573 10.3295 21.9447C10.079 22.0321 9.80396 22.0164 9.565 21.901C9.32604 21.7856 9.14269 21.5801 9.0553 21.3295C8.96791 21.079 8.98363 20.804 9.099 20.565L14.116 10.177C14.2846 9.82813 14.5509 9.53574 14.8825 9.33536C15.2141 9.13498 15.5968 9.03524 15.984 9.04827C16.3713 9.0613 16.7464 9.18653 17.0638 9.40874C17.3812 9.63096 17.6273 9.94059 17.772 10.3L21.928 20.627C22.0269 20.8731 22.024 21.1485 21.9199 21.3924C21.8159 21.6364 21.6191 21.8291 21.373 21.928C21.1269 22.0269 20.8515 22.024 20.6076 21.9199C20.3636 21.8159 20.1709 21.6191 20.072 21.373L18.715 18ZM3 2H11C11.2652 2 11.5196 2.10536 11.7071 2.29289C11.8946 2.48043 12 2.73478 12 3C12 3.26522 11.8946 3.51957 11.7071 3.70711C11.5196 3.89464 11.2652 4 11 4H3C2.73478 4 2.48043 3.89464 2.29289 3.70711C2.10535 3.51957 2 3.26522 2 3C2 2.73478 2.10535 2.48043 2.29289 2.29289C2.48043 2.10536 2.73478 2 3 2V2ZM3 7C2.73478 7 2.48043 6.89464 2.29289 6.70711C2.10535 6.51957 2 6.26522 2 6C2 5.73478 2.10535 5.48043 2.29289 5.29289C2.48043 5.10536 2.73478 5 3 5H10.003C10.3532 5.00011 10.6973 5.0922 11.0008 5.26704C11.3042 5.44188 11.5565 5.69335 11.7323 5.99629C11.908 6.29922 12.0012 6.64301 12.0023 6.99324C12.0035 7.34348 11.9127 7.68788 11.739 7.992C10.794 9.646 9.746 10.836 8.574 11.546C7.102 12.439 5.254 12.918 3.037 12.999C2.90382 13.0073 2.77033 12.9888 2.6444 12.9447C2.51846 12.9006 2.40263 12.8318 2.30371 12.7422C2.2048 12.6526 2.12482 12.5442 2.06846 12.4232C2.01211 12.3023 1.98054 12.1713 1.9756 12.0379C1.97066 11.9046 1.99246 11.7716 2.03971 11.6468C2.08696 11.522 2.1587 11.408 2.25072 11.3113C2.34273 11.2147 2.45316 11.1375 2.57549 11.0842C2.69781 11.0309 2.82957 11.0026 2.963 11.001C4.861 10.931 6.382 10.537 7.537 9.836C8.384 9.323 9.213 8.382 10.003 7H3Z"/>
</svg>
