<svg viewBox="0 0 24 24" fill="none" xmlns="http://www.w3.org/2000/svg">
<path d="M10.833 1.25916C11.1346 1.21373 11.434 1.35536 11.5898 1.61755C11.7452 1.87969 11.727 2.21053 11.543 2.45349C10.5507 3.76368 9.95801 5.41113 9.95801 7.20447C9.95828 11.4969 13.3462 14.9437 17.4854 14.9437C18.6263 14.9437 19.707 14.6834 20.6748 14.2172C20.951 14.0842 21.2807 14.1323 21.5068 14.3392C21.7328 14.5463 21.8103 14.8708 21.7021 15.1576C20.2519 19.0041 16.6021 21.7504 12.3115 21.7504C6.73707 21.7502 2.25037 17.1203 2.25 11.4496C2.25 6.28878 5.96302 1.99413 10.833 1.25916Z" />
</svg>
