<svg viewBox="0 0 24 24" fill="none" xmlns="http://www.w3.org/2000/svg">
<path d="M12 19.25C12.4142 19.25 12.75 19.5858 12.75 20V22C12.75 22.4142 12.4142 22.75 12 22.75C11.5858 22.75 11.25 22.4142 11.25 22V20C11.25 19.5858 11.5858 19.25 12 19.25ZM5.46973 17.4697C5.76263 17.177 6.23743 17.1769 6.53027 17.4697C6.82311 17.7626 6.82301 18.2374 6.53027 18.5303L5.03027 20.0303C4.73738 20.3232 4.26262 20.3232 3.96973 20.0303C3.67683 19.7374 3.67683 19.2626 3.96973 18.9697L5.46973 17.4697ZM17.4697 17.4688C17.7626 17.1762 18.2374 17.1762 18.5303 17.4688L20.0303 18.9688C20.3231 19.2616 20.3229 19.7364 20.0303 20.0293C19.7374 20.3222 19.2626 20.3222 18.9697 20.0293L17.4697 18.5293C17.1771 18.2364 17.1769 17.7616 17.4697 17.4688ZM12 6.25C15.1756 6.25 17.75 8.82436 17.75 12C17.75 15.1756 15.1756 17.75 12 17.75C8.82436 17.75 6.25 15.1756 6.25 12C6.25 8.82436 8.82436 6.25 12 6.25ZM4 11.25C4.41421 11.25 4.75 11.5858 4.75 12C4.75 12.4142 4.41421 12.75 4 12.75H2C1.58579 12.75 1.25 12.4142 1.25 12C1.25 11.5858 1.58579 11.25 2 11.25H4ZM22 11.25C22.4142 11.25 22.75 11.5858 22.75 12C22.75 12.4142 22.4142 12.75 22 12.75H20C19.5858 12.75 19.25 12.4142 19.25 12C19.25 11.5858 19.5858 11.25 20 11.25H22ZM18.9697 3.96973C19.2626 3.67705 19.7375 3.67691 20.0303 3.96973C20.3231 4.26255 20.3229 4.73736 20.0303 5.03027L18.5303 6.53027C18.2374 6.82311 17.7626 6.82315 17.4697 6.53027C17.1769 6.2374 17.1769 5.76262 17.4697 5.46973L18.9697 3.96973ZM3.96973 3.96875C4.26256 3.67618 4.73744 3.67618 5.03027 3.96875L6.53027 5.46875C6.82308 5.76156 6.82292 6.23639 6.53027 6.5293C6.23738 6.82219 5.76262 6.82219 5.46973 6.5293L3.96973 5.03027C3.67684 4.73738 3.67685 4.26164 3.96973 3.96875ZM12 1.25C12.4142 1.25 12.75 1.58579 12.75 2V4C12.75 4.41421 12.4142 4.75 12 4.75C11.5858 4.75 11.25 4.41421 11.25 4V2C11.25 1.58579 11.5858 1.25 12 1.25Z" />
</svg>
